Coordinates
version=1
nRows=6
nColumns=34
inDegrees=yes

Units are S.I. units (second, meters, Newtons, ...)
If the header above contains a line with 'inDegrees', this indicates whether rotational values are in degrees (yes) or radians (no).

endheader
time	pelvis_tilt	pelvis_list	pelvis_rotation	pelvis_tx	pelvis_ty	pelvis_tz	hip_flexion_r	hip_adduction_r	hip_rotation_r	knee_angle_r	ankle_angle_r	subtalar_angle_r	mtp_angle_r	hip_flexion_l	hip_adduction_l	hip_rotation_l	knee_angle_l	ankle_angle_l	subtalar_angle_l	mtp_angle_l	lumbar_extension	lumbar_bending	lumbar_rotation	arm_flex_r	arm_add_r	arm_rot_r	elbow_flex_r	pro_sup_r	arm_flex_l	arm_add_l	arm_rot_l	elbow_flex_l	pro_sup_l
      3.30000000	     -4.85949552	    -19.97431199	    -47.22003129	      3.07561720	      0.93636957	      7.86500256	     39.44425935	     -2.60234884	     -5.28639176	     36.99804915	    -13.04883173	      8.64670381	      0.00000000	     31.18939689	     -0.17983829	      5.73017579	      6.74648174	     -4.93798181	     11.13279644	      0.00000000	    -28.80541150	     18.08478967	     -6.68587931	     -5.91323927	     -1.73170448	     28.20845503	     59.53066412	    116.54586342	      4.49552894	     -7.58724323	     21.71151394	     95.62470157	    119.51303802
      3.31666670	     -3.93657643	    -19.31738375	    -47.24015503	      3.07417211	      0.93680622	      7.86648332	     40.37212818	     -3.13331739	     -4.02699279	     38.48752373	    -13.68656332	      7.15056273	      0.00000000	     33.36568335	      0.29186480	     -0.40777517	     10.47631849	     -7.46171489	     11.74452092	      0.00000000	    -29.35377136	     16.99506546	     -6.13886706	     -4.67985267	     -1.35832557	     28.17928029	     58.33688564	    116.31604853	      4.81294474	     -8.02082685	     22.61525515	     94.93690380	    119.54379813
      3.33333330	     -3.48307285	    -19.28679944	    -47.06262224	      3.07363298	      0.93787765	      7.86929922	     40.55786641	     -3.48704707	     -4.28946360	     39.53054186	    -13.51094186	      6.99374792	      0.00000000	     34.37242649	      0.20641626	     -5.01481451	     12.21810871	    -11.27012402	     10.56407775	      0.00000000	    -29.90355761	     16.57512915	     -5.72003800	     -3.97573201	     -0.89790682	     28.53095791	     57.17830994	    116.24057242	      4.80871477	     -8.65269156	     23.28040910	     94.97964133	    119.62355053
      3.35000000	     -2.26464993	    -18.77828929	    -46.73061154	      3.07349648	      0.93839764	      7.87127209	     41.04108006	     -4.79019561	     -4.27208820	     41.21660310	    -13.05915610	      7.08187963	      0.00000000	     33.85574273	      1.20287661	     -8.25682440	     11.24873003	    -14.69824695	      9.29908135	      0.00000000	    -30.49900265	     15.26202738	     -6.09820350	     -3.67453994	     -0.62865179	     29.00978619	     56.84897935	    116.24993543	      4.52503366	     -9.17462923	     23.65884064	     96.76063232	    119.71092822
      3.36666670	     -1.27082564	    -18.05147059	    -47.52171506	      3.07160906	      0.93967430	      7.87353417	     41.69533620	     -5.13335596	     -3.04035497	     42.02332753	    -13.18091377	      6.66415176	      0.00000000	     33.51232153	      1.47002835	    -12.87642229	     10.30267550	    -17.98651193	      8.76366197	      0.00000000	    -31.18470728	     13.17217184	     -5.64651677	     -3.24054261	     -0.30020104	     28.05908759	     57.16390210	    116.21778701	      3.94550701	     -9.75307773	     24.72278646	     98.69554135	    119.74817918
      3.38333330	     -1.91465129	    -17.59197246	    -50.23022816	      3.07182168	      0.94233483	      7.87812378	     42.15101757	     -3.25424512	     -1.79587019	     41.02750167	    -15.25427327	      5.82462162	      0.00000000	     33.33434808	      0.20106976	    -14.48536942	      9.24949278	    -21.08050470	      5.76989526	      0.00000000	    -30.90068736	     12.48983423	     -3.67209058	     -2.50248615	     -1.76811601	     28.89663809	     58.05502996	    116.42188710	      2.29917869	     -9.15409236	     24.36069309	     99.52230242	    119.74817918
